<?xml version="1.0" standalone="no"?>
<!DOCTYPE svg PUBLIC "-//W3C//DTD SVG 20010904//EN"
 "http://www.w3.org/TR/2001/REC-SVG-20010904/DTD/svg10.dtd">
<svg version="1.0" xmlns="http://www.w3.org/2000/svg"
 width="368.000000pt" height="115.000000pt" viewBox="0 0 368.000000 115.000000"
 preserveAspectRatio="xMidYMid meet">

<g transform="translate(0.000000,115.000000) scale(0.100000,-0.100000)"
fill="#000000" stroke="none">
<path d="M3200 1024 c-72 -22 -134 -75 -165 -138 -23 -48 -27 -65 -23 -123 2
-44 10 -78 22 -95 l18 -28 172 1 171 0 -65 30 c-94 44 -130 74 -130 110 0 33
28 66 66 75 40 10 119 -3 172 -28 l49 -24 36 71 c21 39 37 76 37 81 0 6 -21
21 -47 33 -109 50 -225 63 -313 35z"/>
<path d="M110 1017 c32 -30 207 -165 227 -176 28 -14 753 -16 753 -1 0 5 -51
50 -112 99 l-113 90 -385 1 c-323 0 -382 -2 -370 -13z"/>
<path d="M1220 835 l0 -195 100 0 100 0 0 195 0 195 -100 0 -100 0 0 -195z"/>
<path d="M1550 835 l0 -195 100 0 100 0 0 195 0 195 -100 0 -100 0 0 -195z"/>
<path d="M2157 1013 c-4 -3 -7 -89 -7 -190 l0 -183 100 0 100 0 0 190 0 190
-93 0 c-52 0 -97 -3 -100 -7z"/>
<path d="M2650 830 l0 -190 100 0 100 0 0 174 c0 96 -3 181 -6 190 -5 13 -24
16 -100 16 l-94 0 0 -190z"/>
<path d="M120 702 c0 -5 42 -27 93 -49 64 -28 92 -45 92 -57 0 -12 -28 -30
-95 -59 l-95 -42 377 -3 377 -2 106 46 c73 32 105 51 103 61 -2 8 -50 36 -108
62 l-105 46 -372 3 c-209 2 -373 -1 -373 -6z"/>
<path d="M1220 360 l0 -220 100 0 100 0 0 220 0 220 -100 0 -100 0 0 -220z"/>
<path d="M1550 360 l0 -220 255 0 255 0 0 85 0 85 -155 0 -155 0 0 135 0 135
-100 0 -100 0 0 -220z"/>
<path d="M2153 563 c-3 -9 -2 -67 4 -128 9 -93 16 -122 39 -166 54 -99 148
-143 304 -143 156 0 250 44 305 145 27 49 30 65 35 177 3 68 3 126 1 128 -2 2
-46 4 -96 4 l-92 0 -5 -85 c-9 -134 -43 -175 -148 -175 -105 0 -139 41 -148
175 l-5 85 -94 0 c-78 0 -95 -3 -100 -17z"/>
<path d="M3148 560 c17 -11 49 -27 70 -35 69 -29 141 -79 152 -105 7 -18 8
-35 1 -53 -27 -69 -133 -82 -241 -27 -36 18 -73 39 -83 48 -9 8 -19 13 -20 11
-2 -2 -25 -40 -51 -83 -56 -93 -59 -85 59 -142 93 -45 201 -61 296 -45 172 28
259 118 259 268 0 65 -17 108 -59 151 l-33 32 -191 0 -192 0 33 -20z"/>
<path d="M182 313 c-27 -38 -102 -162 -102 -168 0 -3 206 -4 457 -3 l457 3 53
85 c29 47 53 91 53 98 0 9 -96 12 -449 12 l-450 0 -19 -27z"/>
</g>
</svg>
